<?xml version="1.0" encoding="UTF-8" standalone="no"?>
<!-- Created with Inkscape (http://www.inkscape.org/) -->

<svg
   width="83.528824mm"
   height="84.701637mm"
   viewBox="0 0 83.528824 84.701637"
   version="1.1"
   id="svg1"
   inkscape:version="1.4.2 (ebf0e940d0, 2025-05-08)"
   sodipodi:docname="logo.svg"
   xmlns:inkscape="http://www.inkscape.org/namespaces/inkscape"
   xmlns:sodipodi="http://sodipodi.sourceforge.net/DTD/sodipodi-0.dtd"
   xmlns="http://www.w3.org/2000/svg"
   xmlns:svg="http://www.w3.org/2000/svg">
  <sodipodi:namedview
     id="namedview1"
     pagecolor="#ffffff"
     bordercolor="#000000"
     borderopacity="0.25"
     inkscape:showpageshadow="2"
     inkscape:pageopacity="0.0"
     inkscape:pagecheckerboard="0"
     inkscape:deskcolor="#d1d1d1"
     inkscape:document-units="mm"
     inkscape:zoom="0.77593294"
     inkscape:cx="278.37457"
     inkscape:cy="288.04036"
     inkscape:window-width="1916"
     inkscape:window-height="1028"
     inkscape:window-x="0"
     inkscape:window-y="24"
     inkscape:window-maximized="1"
     inkscape:current-layer="layer1" />
  <defs
     id="defs1" />
  <g
     inkscape:label="Layer 1"
     inkscape:groupmode="layer"
     id="layer1"
     transform="translate(-31.418361,-60.575369)">
    <path
       style="fill:none;stroke:#000000;stroke-width:0.465;stroke-dasharray:none;stroke-opacity:1"
       d="M 31.711826,80.814007 C 44.328357,119.34558 29.665901,166.74282 44.328357,119.34558 58.990814,71.948335 58.990814,71.948335 58.990814,71.948335 Z"
       id="path1" />
    <path
       style="fill:none;fill-opacity:1;stroke:#000000;stroke-width:0.264583;stroke-opacity:1"
       d="M 39.554536,138.44087 58.990814,80.47302 c 0,0 17.049369,10.911594 14.32147,12.275544 -2.727899,1.363949 -24.55109,7.160734 -33.757748,45.692306 z"
       id="path2" />
    <path
       style="fill:none;stroke:#000000;stroke-width:0.264583;stroke-opacity:1"
       d="m 44.328357,136.39495 c 0,0 8.865672,-41.600463 22.16418,-29.32492 13.298506,12.27555 -0.681977,13.29851 -0.681977,13.29851 0,0 -16.708379,-10.57061 -13.639492,0 3.068886,10.57061 -11.252584,18.07233 12.957518,10.57061 24.210105,-7.50172 -20.800229,5.4558 -20.800229,5.4558 z"
       id="path3" />
    <path
       style="fill:none;stroke:#000000;stroke-width:0.765;stroke-dasharray:none;stroke-opacity:1"
       d="M 46.715268,109.11596 C 75.358209,87.974741 101.61424,49.102179 80.132029,95.135474 c -21.482203,46.033306 -4.43283,46.715276 -4.43283,46.715276 0,0 40.577491,10.22962 24.551081,-6.81975 C 84.223879,117.98163 62.059699,125.82434 76.722159,108.093 91.384609,90.36165 100.59127,120.36855 104.68312,107.41103 108.77497,94.4535 131.62112,35.803673 89.679679,73.312284 47.738229,110.8209 46.715268,109.11596 46.715268,109.11596 Z"
       id="path4" />
  </g>
</svg>
